<?xml version="1.0" encoding="UTF-8"?>
<!DOCTYPE svg PUBLIC "-//W3C//DTD SVG 1.1//EN" "http://www.w3.org/Graphics/SVG/1.1/DTD/svg11.dtd">
<!-- Creator: CorelDRAW -->
<svg xmlns="http://www.w3.org/2000/svg" xml:space="preserve" width="103.618mm" height="40mm" version="1.1" style="shape-rendering:geometricPrecision; text-rendering:geometricPrecision; image-rendering:optimizeQuality; fill-rule:evenodd; clip-rule:evenodd"
viewBox="0 0 10361.8 4000"
 xmlns:xlink="http://www.w3.org/1999/xlink"
 xmlns:xodm="http://www.corel.com/coreldraw/odm/2003">
 <defs>
  <style type="text/css">
   <![CDATA[
    .fil1 {fill:#FFED00}
    .fil0 {fill:#2B2A29;fill-rule:nonzero}
   ]]>
  </style>
 </defs>
 <g id="Layer_x0020_1">
  <metadata id="CorelCorpID_0Corel-Layer"/>
  <path class="fil0" d="M6209.57 2881.77l0 66.32 -68.58 0 0 -209.13 68.58 0c11.85,47.27 33.44,84.25 64.77,110.92 31.32,26.53 68.72,39.79 112.32,39.79 32.88,0 60.4,-10.16 82.55,-30.62 22.16,-20.32 33.31,-45.58 33.31,-75.92 0,-26.39 -8.9,-47.84 -26.82,-64.21 -17.92,-16.36 -47.83,-30.19 -89.74,-41.48l-63.64 -16.94c-60.68,-16.65 -104.85,-38.38 -132.37,-65.19 -27.51,-26.95 -41.34,-61.66 -41.34,-104.42 0,-49.39 16.79,-89.18 50.37,-119.24 33.73,-30.06 78.18,-45.02 133.64,-45.02 33.58,0 62.79,5.51 87.77,16.37 24.97,10.87 45.29,26.96 60.96,48.55l0 -53.06 59.27 0 0 175.26 -59.27 0c-10.44,-38.1 -28.93,-67.45 -55.6,-87.91 -26.53,-20.47 -59.41,-30.63 -98.5,-30.63 -31.18,0 -56.58,8.33 -76.34,25.12 -19.61,16.65 -29.49,38.24 -29.49,64.77 0,24.56 8.04,43.89 23.99,57.86 15.95,14.11 45.86,26.67 89.61,37.68l49.24 12.84c70.28,17.35 121.08,40.78 152.4,69.99 31.47,29.35 47.14,67.73 47.14,115.14 0,52.36 -19.05,95.54 -57.01,129.83 -38.1,34.29 -86.36,51.5 -144.78,51.5 -33.02,0 -65.48,-7.05 -96.95,-21.3 -31.61,-14.12 -56.72,-33.17 -75.49,-56.87z"/>
  <path id="_1" class="fil0" d="M6736.2 2718.64l260.77 0c-5.5,-35.56 -19.33,-62.65 -41.63,-81.28 -22.15,-18.62 -51.78,-27.94 -88.76,-27.94 -36.97,0 -66.6,9.32 -88.75,27.94 -22.3,18.63 -36.13,45.72 -41.63,81.28zm326.67 114.3c-17.92,38.95 -44.31,69.71 -79.16,91.87 -34.86,22.29 -74.09,33.44 -117.97,33.44 -61.39,0 -110.92,-19.05 -148.45,-57.01 -37.68,-37.96 -56.45,-88.33 -56.45,-151.13 0,-60.4 18.77,-108.8 56.17,-145.2 37.53,-36.55 87.34,-54.75 149.57,-54.75 61.67,0 111.34,19.75 149.16,59.12 37.68,39.37 56.59,91.72 56.59,156.92l0 9.17 -336.13 0c2.82,36.41 17.07,65.76 42.9,88.19 25.68,22.44 58.13,33.73 97.08,33.73 24.55,0 47.13,-5.5 68.02,-16.65 20.88,-11.15 37.81,-27.09 51.08,-47.7l67.59 0z"/>
  <path id="_2" class="fil0" d="M7197.63 2754.2c0,41.35 12.7,75.5 38.1,102.59 25.4,26.95 57.01,40.5 94.69,40.5 37.82,0 69.43,-13.55 94.69,-40.5 25.11,-27.09 37.81,-61.24 37.81,-102.59 0,-41.34 -12.7,-75.35 -37.81,-102.16 -25.26,-26.67 -56.87,-40.08 -94.69,-40.08 -38.81,0 -70.7,13.27 -95.53,39.94 -24.84,26.53 -37.26,60.67 -37.26,102.3zm332.75 135.47l59.26 0 0 58.42 -132.08 0 0 -51.65c-15.66,20.04 -35.14,35.28 -58.28,45.58 -23.14,10.3 -49.39,15.38 -78.6,15.38 -56.44,0 -103.86,-19.47 -141.96,-58.42 -38.24,-38.94 -57.29,-87.2 -57.29,-144.78 0,-57.57 19.19,-105.97 57.44,-145.2 38.38,-39.23 85.65,-58.84 141.81,-58.84 28.37,0 54.05,5.08 76.77,15.24 22.72,10.16 42.75,25.4 60.11,45.72l0 -50.8 132.08 0 0 58.42 -59.26 0 0 270.93z"/>
  <path id="_3" class="fil0" d="M7778.59 2621.28c14.39,-24.84 31.75,-43.04 52.35,-54.61 20.61,-11.58 46.01,-17.36 76.34,-17.36 1.7,0 4.38,0.14 8.19,0.42 3.95,0.28 6.77,0.43 8.75,0.43l0 65.19 -20.18 0c-39.51,0 -70.27,10.44 -92.29,31.18 -22.15,20.89 -33.16,49.96 -33.16,87.49l0 155.65 60.11 0 0 58.42 -192.19 0 0 -58.42 60.11 0 0 -270.93 -60.11 0 0 -58.42 132.08 0 0 60.96z"/>
  <path id="_4" class="fil0" d="M8276.15 2835.48l39.09 38.1c-21.17,27.52 -46.71,48.55 -76.48,62.94 -29.78,14.53 -62.66,21.73 -98.78,21.73 -58.7,0 -105.41,-18.34 -140.13,-55.17 -34.71,-36.69 -52.07,-85.8 -52.07,-147.18 0,-61.67 16.8,-111.48 50.52,-149.16 33.73,-37.68 78.18,-56.58 133.21,-56.58 25.12,0 47.27,3.81 66.46,11.57 19.34,7.62 36.69,19.61 52.07,35.7l0 -37.11 56.73 0 0 133.77 -51.79 0c-11,-27.8 -26.24,-48.68 -45.86,-62.8 -19.61,-13.97 -43.04,-21.02 -70.27,-21.02 -35,0 -63.22,13.26 -84.53,39.93 -21.31,26.53 -32.03,61.81 -32.03,105.7 0,44.3 11.43,79.02 34.29,104 22.86,24.97 54.89,37.39 95.96,37.39 23.7,0 45.86,-5.08 66.32,-15.38 20.6,-10.16 39.65,-25.68 57.29,-46.43z"/>
  <path id="_5" class="fil0" d="M8760.73 2889.67l59.27 0 0 58.42 -192.2 0 0 -58.42 60.12 0 0 -174.27c0,-40.78 -5.22,-67.6 -15.67,-80.15 -10.44,-12.7 -28.08,-19.05 -52.91,-19.05 -20.46,0 -40.5,5.36 -60.4,16.08 -19.75,10.73 -40.36,27.38 -61.52,49.96l0 207.43 60.11 0 0 58.42 -192.19 0 0 -58.42 59.26 0 0 -491.92 -59.26 0 0 -59.26 132.08 0 0 276.86c22.58,-22.3 45.44,-38.67 68.44,-49.25 23,-10.58 47.27,-15.94 72.95,-15.94 22.01,0 41.77,3.95 59.13,11.71 17.35,7.9 31.46,19.19 42.47,34.15 7.2,9.59 12.42,20.46 15.52,32.45 3.25,11.86 4.8,29.64 4.8,53.06l0 7.34 0 200.8z"/>
  <path class="fil0" d="M2356.03 3222.88l0 139.72 -60.36 0 0 508.44c0,16.11 -3.78,31.17 -11.32,45.18 -7.54,14 -17.6,26.26 -30.17,36.76 -12.58,10.51 -27.25,18.74 -44.02,24.69 -16.77,5.95 -34.78,8.93 -54.07,8.93l-349.57 0c-19.28,0 -37.31,-2.98 -54.08,-8.93 -16.76,-5.95 -31.43,-14.18 -44,-24.69 -12.58,-10.5 -22.43,-22.76 -29.56,-36.76 -7.12,-14.01 -10.68,-29.07 -10.68,-45.18l0 -508.44 -61.61 0 0 -139.72 329.45 0 0 139.72 -60.37 0 0 462.22c0,6.3 2.73,11.56 8.18,15.76 5.44,4.2 11.94,6.3 19.5,6.3l157.18 0c6.7,0 12.56,-2.1 17.6,-6.3 5.03,-4.2 7.54,-9.46 7.54,-15.76l0 -462.22 -57.83 0 0 -139.72 328.19 0z"/>
  <polygon id="_1_0" class="fil0" points="3223.68,3222.88 3223.68,3362.6 3162.06,3362.6 3162.06,3986.6 2957.09,3986.6 2698.05,3531.73 2698.05,3846.88 2759.67,3846.88 2759.67,3986.6 2437.76,3986.6 2437.76,3846.88 2500.63,3846.88 2500.63,3362.6 2437.76,3362.6 2437.76,3222.88 2715.66,3222.88 2965.89,3663.04 2965.89,3362.6 2904.28,3362.6 2904.28,3222.88 "/>
  <polygon id="_2_1" class="fil0" points="3379.6,3846.88 3379.6,3362.6 3311.7,3362.6 3311.7,3222.88 3656.24,3222.88 3656.24,3362.6 3587.08,3362.6 3587.08,3846.88 3656.24,3846.88 3656.24,3986.6 3311.7,3986.6 3311.7,3846.88 "/>
  <path id="_3_2" class="fil0" d="M4417.01 3222.88l0 139.72 -75.45 0 138.33 484.28 67.89 0 0 139.72 -330.71 0 0 -139.72 57.84 0 -20.12 -75.63 -231.37 0 -18.86 75.63 57.85 0 0 139.72 -330.72 0 0 -139.72 67.9 0 140.84 -484.28 -75.44 0 0 -139.72 552.02 0zm-362.15 427.56l168.5 0 -74.19 -287.84 -18.87 0 -75.44 287.84z"/>
  <path id="_4_3" class="fil0" d="M4932.57 3986.6c-10.05,0 -20.53,-0.18 -31.43,-0.53 -10.89,-0.35 -21.58,-1.57 -32.07,-3.67 -10.47,-2.1 -20.32,-5.43 -29.54,-9.98 -9.23,-4.55 -17.19,-11.03 -23.89,-19.44 -4.19,7.71 -11.33,13.84 -21.38,18.39 -10.07,4.55 -21.6,7.88 -34.58,9.98 -13,2.1 -26.83,3.5 -41.5,4.2 -14.67,0.7 -28.29,1.05 -40.87,1.05l-45.27 0 0 -258.43 208.74 0 0 96.65c0,5.6 2.3,10.68 6.92,15.23 4.61,4.56 10.26,6.83 16.98,6.83l142.08 0c6.72,0 12.58,-2.1 17.61,-6.3 5.03,-4.2 7.55,-9.46 7.55,-15.76l0 -58.83c0,-7.7 -3.36,-13.3 -10.06,-16.81l-333.23 -174.38c-21.79,-11.91 -36.67,-24.16 -44.64,-36.77 -7.96,-12.6 -11.95,-29.06 -11.95,-49.37l0 -150.22c0,-15.41 3.57,-30.12 10.69,-44.13 7.13,-14 16.77,-26.26 28.92,-36.76 12.16,-10.51 26.62,-18.91 43.39,-25.22 16.76,-6.3 35.2,-9.45 55.33,-9.45l183.58 0c10.07,0 20.96,0.17 32.7,0.52 11.73,0.35 23.48,1.58 35.21,3.68 11.74,2.1 22.85,5.43 33.32,9.98 10.47,4.55 19.07,11.03 25.78,19.44 4.19,-7.71 11.32,-13.84 21.37,-18.39 10.07,-4.55 21.59,-7.88 34.58,-9.98 13,-2.1 26.62,-3.5 40.87,-4.2 14.25,-0.7 28.09,-1.05 41.5,-1.05l45.27 0 0 259.48 -208.75 0 0 -97.7c0,-5.6 -2.3,-10.68 -6.9,-15.23 -4.61,-4.56 -10.69,-6.83 -18.25,-6.83l-164.72 0c-6.7,0 -12.58,2.1 -17.6,6.3 -5.03,4.2 -7.55,9.45 -7.55,15.76l0 56.73c0,7.7 3.36,13.3 10.06,16.8l357.13 179.64c23.47,11.91 38.77,24.16 45.89,36.77 7.12,12.6 10.69,29.06 10.69,49.37l0 147.07c0,16.11 -3.77,31.17 -11.33,45.18 -7.54,14 -17.59,26.26 -30.17,36.76 -12.57,10.51 -27.25,18.74 -44.02,24.69 -16.75,5.95 -34.36,8.93 -52.81,8.93l-193.65 0z"/>
  <path id="_5_4" class="fil0" d="M5684.53 3986.6c-10.06,0 -20.53,-0.18 -31.43,-0.53 -10.9,-0.35 -21.59,-1.57 -32.07,-3.67 -10.48,-2.1 -20.33,-5.43 -29.54,-9.98 -9.23,-4.55 -17.19,-11.03 -23.9,-19.44 -4.19,7.71 -11.32,13.84 -21.37,18.39 -10.07,4.55 -21.6,7.88 -34.59,9.98 -13,2.1 -26.82,3.5 -41.5,4.2 -14.66,0.7 -28.28,1.05 -40.86,1.05l-45.27 0 0 -258.43 208.74 0 0 96.65c0,5.6 2.3,10.68 6.92,15.23 4.61,4.56 10.26,6.83 16.98,6.83l142.08 0c6.72,0 12.58,-2.1 17.61,-6.3 5.03,-4.2 7.55,-9.46 7.55,-15.76l0 -58.83c0,-7.7 -3.36,-13.3 -10.07,-16.81l-333.22 -174.38c-21.8,-11.91 -36.67,-24.16 -44.65,-36.77 -7.96,-12.6 -11.94,-29.06 -11.94,-49.37l0 -150.22c0,-15.41 3.56,-30.12 10.69,-44.13 7.13,-14 16.77,-26.26 28.92,-36.76 12.16,-10.51 26.62,-18.91 43.39,-25.22 16.76,-6.3 35.2,-9.45 55.32,-9.45l183.59 0c10.07,0 20.96,0.17 32.7,0.52 11.73,0.35 23.47,1.58 35.2,3.68 11.75,2.1 22.86,5.43 33.33,9.98 10.47,4.55 19.07,11.03 25.78,19.44 4.19,-7.71 11.31,-13.84 21.37,-18.39 10.07,-4.55 21.59,-7.88 34.58,-9.98 13,-2.1 26.62,-3.5 40.87,-4.2 14.25,-0.7 28.09,-1.05 41.5,-1.05l45.27 0 0 259.48 -208.75 0 0 -97.7c0,-5.6 -2.3,-10.68 -6.91,-15.23 -4.6,-4.56 -10.68,-6.83 -18.24,-6.83l-164.72 0c-6.7,0 -12.58,2.1 -17.61,6.3 -5.02,4.2 -7.54,9.45 -7.54,15.76l0 56.73c0,7.7 3.35,13.3 10.06,16.8l357.12 179.64c23.48,11.91 38.78,24.16 45.9,36.77 7.12,12.6 10.69,29.06 10.69,49.37l0 147.07c0,16.11 -3.77,31.17 -11.33,45.18 -7.54,14 -17.59,26.26 -30.17,36.76 -12.57,10.51 -27.25,18.74 -44.02,24.69 -16.76,5.95 -34.36,8.93 -52.81,8.93l-193.65 0z"/>
  <polygon id="_6" class="fil0" points="6181.23,3846.88 6181.23,3362.6 6119.62,3362.6 6119.62,3222.88 6774.75,3222.88 6774.75,3482.36 6572.3,3482.36 6572.3,3362.6 6388.72,3362.6 6388.72,3544.34 6621.34,3544.34 6621.34,3673.55 6388.72,3673.55 6388.72,3846.88 6572.3,3846.88 6572.3,3728.17 6774.75,3728.17 6774.75,3986.6 6119.62,3986.6 6119.62,3846.88 "/>
  <polygon id="_7" class="fil0" points="7520.44,3986.6 6881.64,3986.6 6881.64,3846.88 6943.25,3846.88 6943.25,3362.6 6881.64,3362.6 6881.64,3222.88 7243.78,3222.88 7243.78,3362.6 7150.74,3362.6 7150.74,3846.88 7311.69,3846.88 7311.69,3673.55 7520.44,3673.55 "/>
  <polygon id="_8" class="fil0" points="7745.51,3986.6 7745.51,3955.08 7564.44,3362.6 7495.27,3362.6 7495.27,3222.88 7831.02,3222.88 7831.02,3362.6 7776.95,3362.6 7886.35,3791.21 7902.7,3791.21 8010.84,3362.6 7958.02,3362.6 7958.02,3222.88 8293.77,3222.88 8293.77,3362.6 8224.61,3362.6 8042.27,3955.08 8042.27,3986.6 "/>
  <polygon id="_9" class="fil0" points="8437.13,3846.88 8437.13,3362.6 8369.22,3362.6 8369.22,3222.88 8713.77,3222.88 8713.77,3362.6 8644.6,3362.6 8644.6,3846.88 8713.77,3846.88 8713.77,3986.6 8369.22,3986.6 8369.22,3846.88 "/>
  <path class="fil1" d="M1560.85 2493.25l-14.61 -577.09c1288.74,-1319.87 3404.09,-406.64 3703.59,518.65 613.92,-1875.65 2812.41,-1857.89 3550.2,-1504.82l0 423.69c-745.09,-462.65 -2842.45,-357.64 -3221.47,1526.73l-606.31 -7.31c-187.49,-886.33 -2098.95,-2013.72 -3411.4,-379.85z"/>
  <path class="fil1" d="M1546.24 1529c1262.97,-1072.91 3272.26,-392.14 3626.9,376.2 790.15,-1579.08 2807.51,-1587.61 3619.58,-1274.71l-7.3 -474.82c-1505.3,-340.91 -2729.12,21.92 -3688.99,1044.61 -1411.52,-920.49 -2514.21,-698.37 -3535.58,-175.32l-14.61 504.04z"/>
 </g>
</svg>
